<svg xmlns="http://www.w3.org/2000/svg" viewBox="0 0 900 650"><defs><linearGradient id="sky" x1="0" x2="1" y1="0" y2="1"><stop stop-color="#dbeafe"/><stop offset="1" stop-color="#ffffff"/></linearGradient><linearGradient id="truck" x1="0" x2="1"><stop stop-color="#fbbf24"/><stop offset="1" stop-color="#f59e0b"/></linearGradient></defs><rect width="900" height="650" rx="34" fill="url(#sky)"/><circle cx="742" cy="104" r="58" fill="#fde68a"/><path d="M0 495c111-40 196-25 293-10 146 23 288-72 423-52 81 12 132 52 184 75v142H0V495Z" fill="#cbd5e1"/><path d="M118 350h212v145H118z" fill="#fff"/><path d="M95 360l129-112 132 112H95Z" fill="#334155"/><path d="M164 395h54v100h-54z" fill="#f59e0b"/><path d="M244 392h52v48h-52z" fill="#dbeafe"/><path d="M500 282h226c33 0 60 27 60 60v79h-54l-24-55h-81v55H500V282Z" fill="url(#truck)"/><rect x="308" y="337" width="259" height="108" rx="12" fill="#0f172a"/><rect x="334" y="363" width="85" height="54" rx="8" fill="#f8fafc" opacity=".9"/><rect x="440" y="363" width="85" height="54" rx="8" fill="#f8fafc" opacity=".9"/><path d="M637 312h64c30 0 54 24 54 54v2H637v-56Z" fill="#fff7ed"/><rect x="278" y="421" width="532" height="40" rx="12" fill="#111827"/><circle cx="397" cy="472" r="48" fill="#1f2937"/><circle cx="397" cy="472" r="19" fill="#f8fafc"/><circle cx="684" cy="472" r="48" fill="#1f2937"/><circle cx="684" cy="472" r="19" fill="#f8fafc"/><rect x="84" y="476" width="720" height="28" rx="14" fill="#64748b" opacity=".35"/><g opacity=".82"><rect x="78" y="294" width="55" height="55" rx="8" fill="#fef3c7"/><rect x="94" y="313" width="24" height="8" rx="4" fill="#d97706"/><rect x="74" y="351" width="70" height="55" rx="8" fill="#fed7aa"/><rect x="96" y="370" width="25" height="8" rx="4" fill="#c2410c"/></g></svg>
