<svg xmlns="http://www.w3.org/2000/svg" viewBox="0 0 780 560"><rect width="780" height="560" rx="28" fill="#172033"/><path d="M38 415c132-39 228-38 349-12 121 26 219-49 355-18v175H38V415Z" fill="#0f172a"/><rect x="73" y="259" width="209" height="153" rx="18" fill="#f59e0b"/><rect x="111" y="295" width="132" height="20" rx="10" fill="#fff7ed"/><rect x="476" y="281" width="185" height="139" rx="18" fill="#fbbf24"/><rect x="516" y="314" width="102" height="18" rx="9" fill="#fff7ed"/><circle cx="338" cy="190" r="43" fill="#fef3c7"/><path d="M293 246c17-37 79-39 100 0l22 108H271l22-108Z" fill="#38bdf8"/><path d="M274 290l-93 52" stroke="#fef3c7" stroke-width="24" stroke-linecap="round"/><path d="M414 286l101 47" stroke="#fef3c7" stroke-width="24" stroke-linecap="round"/><circle cx="585" cy="211" r="36" fill="#fef3c7"/><path d="M546 260c15-31 67-31 82 0l23 118H523l23-118Z" fill="#f97316"/><path d="M526 305l-55 52" stroke="#fef3c7" stroke-width="20" stroke-linecap="round"/><path d="M654 305l50 51" stroke="#fef3c7" stroke-width="20" stroke-linecap="round"/><circle cx="184" cy="215" r="36" fill="#fef3c7"/><path d="M145 264c15-31 67-31 82 0l20 107H126l19-107Z" fill="#a78bfa"/><path d="M126 306l-52 45" stroke="#fef3c7" stroke-width="20" stroke-linecap="round"/><path d="M249 303l65 45" stroke="#fef3c7" stroke-width="20" stroke-linecap="round"/></svg>
