<svg xmlns="http://www.w3.org/2000/svg" viewBox="0 0 760 480"><rect width="760" height="480" rx="28" fill="#eef4fb"/><path d="M36 351c97-36 166-28 251-16 99 14 152-46 253-55 70-6 116 13 184 44v156H36V351Z" fill="#bfdbfe"/><path d="M106 289c56-84 120-150 209-150 94 0 112 107 194 105 59-1 84-55 143-40" fill="none" stroke="#64748b" stroke-width="18" stroke-linecap="round" stroke-dasharray="2 34"/><g font-family="Arial, sans-serif" font-weight="700"><circle cx="334" cy="220" r="20" fill="#f59e0b"/><text x="362" y="226" fill="#0f172a" font-size="22">Brockville</text><circle cx="521" cy="246" r="13" fill="#0f172a"/><text x="544" y="253" fill="#334155" font-size="18">Maitland</text><circle cx="616" cy="202" r="13" fill="#0f172a"/><text x="639" y="209" fill="#334155" font-size="18">Prescott</text><circle cx="226" cy="168" r="13" fill="#0f172a"/><text x="104" y="174" fill="#334155" font-size="18">Athens</text><circle cx="267" cy="321" r="13" fill="#0f172a"/><text x="292" y="328" fill="#334155" font-size="18">Elizabethtown-Kitley</text></g><rect x="56" y="58" width="218" height="54" rx="18" fill="#fff"/><text x="78" y="93" font-family="Arial, sans-serif" font-size="22" font-weight="800" fill="#0f172a">Leeds-Grenville Area</text></svg>
